<?xml version="1.0" encoding="UTF-8"?>
<svg width="32" height="32" viewBox="0 0 32 32" fill="none" xmlns="http://www.w3.org/2000/svg">
  <!-- Hourglass frame -->
  <path d="M10 4h12M10 28h12" stroke="#2e7d32" stroke-width="2" stroke-linecap="round"/>
  <path d="M10 4c0 0 1 6 6 12c-5 6-6 12-6 12" stroke="#2e7d32" stroke-width="2"/>
  <path d="M22 4c0 0-1 6-6 12c5 6 6 12 6 12" stroke="#2e7d32" stroke-width="2"/>
  <!-- Sand in top half -->
  <path d="M11 6c0 0 2 4 5 8c3-4 5-8 5-8" fill="#2e7d32"/>
  <!-- Sand in bottom half -->
  <path d="M11 26c0 0 2-3 5-6c3 3 5 6 5 6" fill="#2e7d32"/>
  <!-- Center point -->
  <circle cx="16" cy="16" r="1" fill="#2e7d32"/>
</svg>
